<svg width="15" height="14" viewBox="0 0 15 14" fill="none" xmlns="http://www.w3.org/2000/svg">
<path d="M8.49394 0.993259C6.3415 0.739175 4.54753 1.03843 3.24355 1.81278C1.93958 2.58714 0.548189 4.36573 0.281941 6.17658C0.0148903 7.98744 -0.00275257 9.96688 1.49369 11.6471C3.68142 14.1056 8.49394 14.5154 10.6464 12.8642C11.2591 12.3932 12.2254 14.1919 13.2976 13.6918C14.1814 13.278 14.2512 12.6594 14.361 12.1673C14.523 11.4664 14.6144 10.5033 14.6193 9.17155C14.6193 4.67627 11.9985 1.39818 8.49875 0.98842L8.49474 0.992453L8.49394 0.993259ZM7.13784 9.65552C5.76409 9.72489 4.56116 8.87714 4.52187 7.50024C4.48658 6.24595 5.51067 5.16428 6.88923 5.09894C8.26298 5.02957 9.43543 5.99671 9.5052 7.25422C9.57497 8.51255 8.51639 9.59019 7.13864 9.65552H7.13784Z" fill="#335145"/>
</svg>
