<svg width="115" height="157" viewBox="0 0 115 157" fill="none" xmlns="http://www.w3.org/2000/svg">
  <g>
    <path d="M110.883 73.6479C113.301 75.656 113.617 79.183 113.699 82.3124C113.801 86.2369 113.689 90.5793 111.036 93.4844C108.904 95.8289 105.589 96.675 102.457 97.1643C94.0299 98.4691 85.4298 97.9696 76.9215 97.3885C58.14 96.0838 39.3789 94.3611 20.6688 92.2205C15.874 91.67 11.0893 91.0992 6.39651 89.9371C4.72342 89.5294 2.98911 88.9993 1.72409 87.8271C0.459069 86.6548 -0.193846 84.6467 0.673306 83.1483C1.31602 82.0576 2.57084 81.4867 3.77465 81.079C6.22308 80.2533 8.76333 79.7742 11.324 79.3869C15.3537 78.7956 19.414 78.4491 23.4743 78.0923C45.1633 76.2269 66.8625 74.443 88.5617 72.7305C93.632 72.333 98.7227 71.9252 103.824 71.9252C106.292 71.915 108.965 72.0781 110.883 73.6377" fill="#161417"/>
    <path d="M75.1362 6.45254C82.5121 11.9366 87.4396 20.6011 88.3985 29.7345C89.3371 38.8678 86.3174 48.3376 80.2473 55.2385C71.7288 64.8918 57.3239 68.8876 45.0511 64.9631C32.7886 61.059 23.3417 49.4588 22.0053 36.666C20.6688 23.8732 27.4938 10.5809 38.6954 4.22017C49.897 -2.14056 64.812 -1.23334 75.1464 6.45254" fill="#161417"/>
    <path d="M1.81593 121.608C-0.13261 118.672 -0.102005 114.891 0.0816275 111.364C0.26526 108.081 0.765148 104.34 3.51963 102.546C5.19273 101.456 7.3249 101.395 9.31425 101.395C16.5677 101.425 23.7906 102.006 31.0339 102.597C45.2144 103.739 59.3846 104.881 73.5651 106.012C84.7769 106.909 95.9887 107.816 107.078 109.641C108.496 109.865 109.935 110.13 111.2 110.844C112.444 111.557 113.485 112.801 113.526 114.249C113.587 115.665 112.679 116.98 111.485 117.786C110.302 118.591 108.884 118.958 107.496 119.274C100.845 120.793 94.0605 121.567 87.2764 122.301C72.9734 123.841 58.6501 125.176 44.3064 126.287C34.5127 127.062 24.6884 127.714 14.8742 127.052C9.98757 126.715 4.51941 125.696 1.80573 121.608" fill="#F14F1C"/>
    <path d="M111.363 132.658C113.781 134.666 114.097 138.193 114.178 141.323C114.28 145.247 114.168 149.59 111.516 152.495C109.384 154.839 106.068 155.685 102.936 156.175C94.5094 157.479 85.9093 156.98 77.401 156.399C58.6195 155.094 39.8584 153.371 21.1483 151.231C16.3535 150.68 11.5688 150.109 6.876 148.947C5.20291 148.54 3.46861 148.01 2.20358 146.837C0.938561 145.665 0.285646 143.657 1.1528 142.159C1.79551 141.068 3.05033 140.497 4.25414 140.089C6.70257 139.264 9.24282 138.784 11.8035 138.397C15.8332 137.806 19.8935 137.459 23.9538 137.103C45.6428 135.237 67.342 133.453 89.0412 131.741C94.1115 131.343 99.2022 130.935 104.303 130.935C106.772 130.925 109.445 131.088 111.363 132.648" fill="#161417"/>
  </g>
</svg>
